<svg width="78" height="22" viewBox="0 0 78 22" fill="none" xmlns="http://www.w3.org/2000/svg">
<path d="M63.3128 0.160889H76.7295C76.9973 0.160889 77.1312 0.294787 77.1312 0.562584V3.42802C77.1312 3.69582 76.9973 3.82971 76.7295 3.82971H67.1156V8.89108H75.8993C76.1939 8.89108 76.3278 9.02498 76.3278 9.29278V12.0243C76.3278 12.2921 76.1939 12.426 75.8993 12.426H67.1156V17.2196H76.7295C76.9973 17.2196 77.1312 17.3535 77.1312 17.6213V20.4867C77.1312 20.7545 76.9973 20.8884 76.7295 20.8884H63.3128C63.045 20.8884 62.9111 20.7545 62.9111 20.4599V0.562584C62.9111 0.294787 63.045 0.160889 63.3128 0.160889Z" fill="#0C0C0D"/>
<path d="M43.0601 0.160889H46.4879C46.7021 0.160889 46.7557 0.241228 46.8628 0.589365L51.0404 16.7911C51.2279 17.407 51.2815 17.5945 51.6296 17.5945C52.0313 17.5945 52.1116 17.4338 52.2991 16.7911L56.4232 0.589365C56.5035 0.294787 56.6106 0.160889 56.7981 0.160889H60.2259C60.5205 0.160889 60.6276 0.294787 60.5472 0.589365L56.1286 17.8355C55.7537 19.2548 55.3252 20.1654 54.8164 20.5135C54.3343 20.8616 53.2899 21.0223 51.6564 21.0223C50.0764 21.0223 49.0587 20.8616 48.5767 20.5135C48.0947 20.1654 47.6662 19.2548 47.2645 17.8355L42.7387 0.589365C42.6584 0.294787 42.7655 0.160889 43.0601 0.160889Z" fill="#0C0C0D"/>
<path d="M36.637 0.160889H40.0381C40.3059 0.160889 40.4398 0.294787 40.4398 0.589365V20.4599C40.4398 20.7545 40.3059 20.8884 40.0381 20.8884H36.637C36.3692 20.8884 36.2354 20.7545 36.2354 20.4599V0.589365C36.2354 0.294787 36.3692 0.160889 36.637 0.160889Z" fill="#0C0C0D"/>
<path d="M20.9202 0.160889H24.3213C24.5891 0.160889 24.723 0.294787 24.723 0.562584V17.2196H33.5067C33.7745 17.2196 33.9084 17.3535 33.9084 17.6213V20.4867C33.9084 20.7545 33.7745 20.8884 33.5067 20.8884H20.9202C20.6525 20.8884 20.5186 20.7545 20.5186 20.4599V0.562584C20.5186 0.294787 20.6525 0.160889 20.9202 0.160889Z" fill="#0C0C0D"/>
<path d="M17.3533 10.5512C17.3533 14.6217 16.7641 17.3801 15.559 18.8529C14.3539 20.299 12.0777 21.0221 8.67664 21.0221C5.27561 21.0221 2.99933 20.299 1.79424 18.8529C0.589154 17.3801 0 14.6217 0 10.5512C0 6.3468 0.428476 3.93662 1.79424 2.2495C3.16001 0.535594 5.16849 0 8.67664 0C12.1848 0 14.1933 0.535594 15.559 2.2495C16.9248 3.93662 17.3533 6.3468 17.3533 10.5512ZM4.25798 10.5512C4.25798 13.2024 4.55256 15.0234 5.11493 15.9607C5.67731 16.898 6.88239 17.3533 8.67664 17.3533C10.4709 17.3533 11.676 16.898 12.2383 15.9607C12.8007 15.0234 13.0953 13.2024 13.0953 10.5512C13.0953 7.84646 12.8007 6.02544 12.2383 5.08815C11.676 4.15086 10.4709 3.66882 8.67664 3.66882C6.88239 3.66882 5.67731 4.15086 5.11493 5.08815C4.55256 6.02544 4.25798 7.84646 4.25798 10.5512Z" fill="#0C0C0D"/>
</svg>
